<svg width="240" height="314" viewBox="0 0 240 314" fill="none" xmlns="http://www.w3.org/2000/svg">
<path d="M3 256.005C4.77499 255.807 6.3902 252.87 7.90591 252.072C10.4998 250.707 13.0773 249.488 15.9656 248.724C19.7113 247.732 22.7637 245.061 26.4004 243.662C27.3552 243.295 29.1987 242.648 29.9825 241.988C32.135 240.175 35.0986 239.051 37.4971 237.452C39.4963 236.119 41.5633 234.776 43.649 233.733C44.7839 233.166 45.5797 232.696 46.2577 231.631C46.5373 231.191 46.6508 230.666 46.8612 230.21C47.4783 228.873 49.477 227.8 50.3849 226.491C52.1124 224 52.2376 221.642 53.0325 218.86C53.4818 217.287 54.4273 215.214 54.5121 213.603C54.7602 208.89 56.9651 204.353 56.9651 199.528C56.9651 195.042 56.2438 189.876 57.335 185.511C58.412 181.203 59.2854 177.011 60.4888 172.799C60.6213 172.335 61.1701 172.395 61.1701 171.728C61.1701 171.178 61.47 170.492 61.6958 169.995C62.272 168.728 61.871 166.611 61.871 165.226C61.871 161.642 61.5853 157.914 61.9099 154.343C62.3824 149.146 62.2788 144.007 63.8956 139.041C64.5829 136.931 64.6871 134.72 65.3752 132.656C65.7965 131.392 66.6108 130.302 67.0494 129.074C67.6408 127.418 68.4161 125.852 68.9573 124.168C69.403 122.781 69.6166 120.386 70.5537 119.262C71.9569 117.578 73.2876 115.696 74.5057 113.869C76.8463 110.358 79.425 107.084 80.9885 103.123C82.4006 99.5457 83.8855 96.0475 85.836 92.7466C86.2633 92.0234 86.2055 91.4207 86.459 90.7025C87.2612 88.4296 88.9166 86.5223 89.6906 84.2002C90.2565 82.5026 90.6056 81.1937 90.6056 79.3916" stroke="#412A00" stroke-width="7" stroke-linecap="round"/>
<path d="M90.6055 81.1433C90.6055 79.6983 90.871 77.3859 91.4815 76.0428C92.6044 73.5725 93.4478 70.4236 95.0052 68.1582C97.1553 65.0308 99.9889 59.7676 104.428 59.7676C106.764 59.7676 109.1 59.7676 111.436 59.7676C112.599 59.7676 112.993 62.2183 113.383 63.0966C114.613 65.8651 115.485 68.6114 115.485 71.6819C115.485 72.9981 114.204 73.8118 114.084 74.8357C113.956 75.9234 113.713 78.6261 113.033 79.3912C111.897 80.6686 111.44 83.571 110.852 85.2705C110.142 87.3233 109.486 89.1236 108.905 91.2277C107.561 96.1005 105.116 100.921 102.948 105.517C101.73 108.1 101.031 111.118 99.989 113.811C99.5548 114.932 98.3157 115.606 97.9449 116.594C97.4821 117.828 97.3667 119.035 96.5627 120.04" stroke="#412A00" stroke-width="7" stroke-linecap="round"/>
<path d="M115.136 73.0837C115.136 69.3373 116.743 66.0445 118.64 62.8436C119.117 62.0391 119.121 60.9769 119.516 60.0986C120.016 58.9867 120.673 58.2822 121.288 57.2757C122.869 54.6885 124.884 52.6038 127.089 50.5009C128.948 48.7284 130.701 47.2208 132.112 45.0499C132.931 43.7896 133.609 42.4581 134.759 41.4678C136.433 40.0266 137.629 38.1345 138.964 36.4645C139.156 36.2257 139.576 36.2353 139.841 36.153C142.852 35.2161 146.076 34.0904 148.582 32.1232C150.232 30.8273 151.594 29.3029 153.39 28.1907C154.794 27.3219 156.08 26.4168 157.264 25.2705C160.265 22.367 164.501 21.5702 168.205 19.9557C170.276 19.0529 172.556 16.5583 174.338 15.0888C175.709 13.9575 176.315 13.2874 176.888 11.6819C177.507 9.94784 179.923 8.89356 181.482 8.25552C183.136 7.5791 184.564 7.17946 186.096 6.3282C187.453 5.57461 188.959 5.80256 190.477 5.80256C193.837 5.80256 195.733 5.13265 195.733 9.03424C195.733 10.1275 196.483 10.9668 196.765 11.9544C197.066 13.0086 197.073 14.1564 197.135 15.264C197.167 15.8524 197.583 16.2132 197.466 16.8603C197.251 18.0378 195.561 19.5783 194.526 20.1699C193.478 20.7687 192.464 22.1708 191.547 22.9733C190.346 24.0247 189.505 25.3853 188.452 26.5554C186.319 28.9248 184.143 31.3708 181.852 33.6611C180.939 34.5743 179.343 35.9396 178.212 36.5619C176.171 37.6844 174.586 38.7746 172.78 40.1634C171.973 40.7846 171.436 41.8581 170.697 42.5969C169.692 43.6023 168.525 44.5218 167.427 45.4003C165.714 46.7707 163.443 47.711 161.625 49.2355C160.074 50.5362 158.847 52.0962 157.459 53.5379C156.093 54.9563 154.182 56.5036 153.098 58.0934C149.558 63.2862 146.063 67.5981 144.201 73.804C142.605 79.1244 139.411 84.2883 136.667 89.0279C135.265 91.4505 134.44 94.0797 133.163 96.562C132.06 98.707 131.188 100.387 130.36 102.714C129.602 104.843 128.571 106.815 127.478 108.788C126.944 109.752 126.606 111.01 125.999 111.903C125.589 112.505 124.879 112.661 124.441 113.304C123.757 114.311 122.857 115.188 122.144 116.186" stroke="#412A00" stroke-width="7" stroke-linecap="round"/>
<path d="M196.434 18.0682C196.929 15.7576 198.851 13.842 200.405 12.1889C201.772 10.7348 202.59 8.88528 204.162 7.57496C205.719 6.2778 207.723 5.77514 209.419 4.92732C212.155 3.55937 215.796 3 218.861 3C221.825 3 223.416 4.33395 223.416 7.41922C223.416 10.5981 223.066 13.6164 223.066 16.7443C223.066 19.3208 222.687 22.8482 220.944 24.8819C220.204 25.7446 218.335 26.4783 218.16 27.88C218.095 28.3999 217.076 29.198 216.68 29.5542C215.866 30.2875 215.642 30.8212 215.337 31.8904C214.89 33.4552 212.722 34.4893 211.872 35.7645C211.125 36.8846 210.41 37.9089 209.224 38.5679C208.246 39.1111 207.673 40.4748 206.771 41.196C205.573 42.1547 202.536 45.3465 202.391 46.8028C202.212 48.5867 200.056 50.5394 198.867 51.7282C195.79 54.8058 192.987 58.2664 189.503 60.8002C186.735 62.8134 183.987 64.5718 181.716 67.1273C177.073 72.3502 171.409 76.8306 167.933 83.1883C166.738 85.3719 165.126 86.8827 163.728 88.9314C161.571 92.0904 160.538 96.0065 159.016 99.4441C158.336 100.982 157.439 102.491 156.992 104.116C156.831 104.7 156.522 106.743 155.94 107.075C155.019 107.602 154.889 110.396 154.227 111.436C153.34 112.83 153.12 114.663 152.358 116.186C151.52 117.864 151.154 119.311 150.606 121.015C150.254 122.109 150.124 123.614 149.127 124.168C148.14 124.717 146.927 126.144 146.323 127.05" stroke="#412A00" stroke-width="7" stroke-linecap="round"/>
<path d="M220.963 24.3749C221.832 24.3749 224.894 23.9062 225.518 24.5306C226.122 25.1346 226.57 28.0632 226.57 28.9304C226.57 29.7318 226.837 30.6726 227.193 31.3833C227.767 32.5312 227.892 33.3392 228.244 34.615C228.612 35.9487 228.598 38.1055 228.672 39.443C228.905 43.6262 226.51 46.7654 224.74 50.3061C223.921 51.9444 222.622 53.2779 221.742 54.8616C221.027 56.1478 219.628 58.7208 218.315 59.4366C217.267 60.0086 216.611 61.1326 215.901 62.0453C214.443 63.9206 212.321 65.7261 210.45 67.2627C209.454 68.0813 207.916 68.6032 207.277 69.774C206.577 71.0577 205.375 72.413 204.493 73.6092C203.433 75.0475 202.299 76.4427 201.359 77.97C200.672 79.0866 200.397 80.3537 199.743 81.4743C196.38 87.2396 192.936 92.868 190.009 98.9564C189.191 100.657 188.472 102.437 187.673 104.135C186.891 105.797 185.795 107.321 185.064 108.982C183.36 112.855 180.518 116.252 179.282 120.371C178.795 121.995 178.443 123.013 177.53 124.44C176.131 126.626 175.537 129.113 174.357 131.39C173.099 133.816 171.718 136.368 170.853 138.963" stroke="#412A00" stroke-width="7" stroke-linecap="round"/>
<path d="M216.057 62.5713C217.731 62.7945 219.801 63.445 221.313 64.2455C222.481 64.8639 222.014 67.0648 222.014 68.178C222.014 69.6834 222.111 70.8687 221.469 72.1884C220.36 74.468 219.576 76.7538 218.529 79.0217C217.651 80.9247 216.979 82.9788 216.135 84.9205C214.928 87.6956 213.201 90.1232 211.891 92.8244C211.28 94.0854 210.086 94.9892 209.555 96.2897C208.79 98.1626 207.895 100.003 207.219 101.896C206.942 102.671 206.363 103.342 206.031 104.116C205.325 105.764 204.452 107.284 203.773 108.983C202.865 111.254 201.815 113.424 200.989 115.758C200.576 116.923 200.415 117.928 199.938 119.067C197.77 124.245 196.123 129.165 195.382 134.719C194.875 138.524 194.564 142.42 193.708 146.167C192.747 150.372 191.036 154.294 190.32 158.587C189.634 162.705 187.322 166.837 187.322 171.027C187.322 173.074 187.039 175.879 186.544 177.86C185.847 180.649 185.57 183.304 185.57 186.27" stroke="#412A00" stroke-width="7" stroke-linecap="round"/>
<path d="M185.57 186.271C184.919 194.078 181.049 201.217 178.912 208.698C178.701 209.434 178.395 210.406 177.705 210.8C177.032 211.185 176.556 213.264 176.264 213.915C175.773 215.01 175.379 216.133 174.843 217.205C173.621 219.649 173.073 222.348 171.748 224.759C171.134 225.874 170.468 227.042 169.957 228.204C168.485 231.548 166.614 235.105 163.922 237.627C161.976 239.45 160.333 241.147 158.86 243.389C158.486 243.958 157.664 245.533 157.186 245.92C156.1 246.799 155.402 248.212 154.441 249.23C153.453 250.275 152.261 251.142 151.229 252.15C149.267 254.065 147.029 255.431 144.921 257.134C142.157 259.366 139.293 261.718 136.355 263.714C133.264 265.813 130.862 268.201 127.633 270.138C124.61 271.952 122.408 274.809 119.223 276.465C112.443 279.991 107.19 286.528 101.644 291.592C98.9902 294.015 96.4807 296.31 94.6159 299.418C93.6048 301.103 92.005 302.929 91.3842 304.791C90.9559 306.076 90.3581 308.814 89.4763 309.892C88.5397 311.037 88.5029 312.351 88.5029 309.97" stroke="#412A00" stroke-width="7" stroke-linecap="round"/>
<path d="M226.92 48.5547C229.12 48.5547 231.475 48.5889 231.475 51.3581C231.475 53.7332 231.475 56.1082 231.475 58.4833C231.475 62.0719 231.475 65.6605 231.475 69.2491C231.475 73.6813 231.475 78.1135 231.475 82.5457C231.475 86.6319 231.713 91.2957 230.424 95.1609" stroke="#412A00" stroke-width="7" stroke-linecap="round"/>
<path d="M220.612 76.5879C226.553 76.8079 228.672 85.0058 228.672 89.8261C228.672 94.955 228.555 100.191 229.1 105.284C229.542 109.407 230.524 113.721 231.748 117.665C232.392 119.742 232.883 121.609 233.85 123.545C235.355 126.553 237.433 129.763 237.433 133.356" stroke="#412A00" stroke-width="7" stroke-linecap="round"/>
<path d="M208.348 101.818C208.348 104.697 208.299 107.545 209.711 110.151C210.706 111.988 212.061 113.644 212.981 115.485C213.443 116.409 214.109 117.027 214.383 118.094C214.568 118.815 214.502 119.824 215.006 120.391C216.168 121.698 215.523 125.778 215.006 127.36C213.926 130.664 212.834 132.239 210.45 134.758C209.213 136.066 208.88 137.886 207.997 139.391C206.98 141.127 205.7 142.831 204.844 144.648C203.095 148.354 198.964 151.858 198.536 156.134C198.448 157.017 197.926 157.908 197.757 158.859C197.607 159.702 197.398 160.622 197.056 161.39C196.563 162.501 196.767 163.868 196.083 164.894" stroke="#412A00" stroke-width="7" stroke-linecap="round"/>
<path d="M188.724 170.852C191.445 172.212 195.438 173.717 197.212 176.458C197.557 176.992 199.262 179.45 199.587 179.612" stroke="#412A00" stroke-width="7" stroke-linecap="round"/>
<path d="M236.382 133.006C236.802 136.523 237.616 141.816 236.382 145.271C235.362 148.126 234.25 150.882 233.033 153.661C232.843 154.097 232.48 154.14 232.255 154.46C231.57 155.429 231.364 157.002 230.911 158.1C229.169 162.331 226.113 165.869 224.137 169.995C222.175 174.092 220.812 178.487 219.017 182.591C216.161 189.118 216.79 197.037 214.811 203.908C213.389 208.848 211.986 213.644 210.1 218.548C208.286 223.265 204.94 226.8 202.469 231.124C199.784 235.822 196.876 240.555 194.682 245.491" stroke="#412A00" stroke-width="7" stroke-linecap="round"/>
</svg>
